<svg xmlns="http://www.w3.org/2000/svg" width="32" height="32" viewBox="0 0 32 32" fill="none">
  <defs>
    <filter id="shadow" x="-20%" y="-20%" width="150%" height="150%">
      <feDropShadow dx="0" dy="1.5" stdDeviation="1.5" flood-color="#000000" flood-opacity="0.35"/>
    </filter>
  </defs>
  
  <g filter="url(#shadow)">
    <!-- Cat Paw Body Outline -->
    <path d="M7 16 C5 12, 6 7, 10 7 C12 7, 13 8.5, 14 10 C15 8, 17 6, 20 6 C23 6, 25 8, 25 11 C26.5 10, 29 11, 29 14 C29 18, 28 22, 25 25 C22 28, 15 28, 11 25 C8 22, 7 19, 7 16 Z" 
          fill="#FFFFFF" 
          stroke="#000000" 
          stroke-width="1.75" 
          stroke-linejoin="round"/>

    <!-- Main Palm Pad (Cat Heart/Bean) -->
    <path d="M13 20 C13 17.5, 15.5 16, 17.5 17.5 C19.5 16, 22 17.5, 22 20 C22 23, 19.5 24.5, 17.5 24.5 C15.5 24.5, 13 23, 13 20 Z" 
          fill="#000000"/>

    <!-- 4 Toe Beans -->
    <!-- Toe 1 (Pointer Hotspot Tip) -->
    <ellipse cx="10" cy="11" rx="2.2" ry="2.7" transform="rotate(-20 10 11)" fill="#000000"/>
    <!-- Toe 2 -->
    <ellipse cx="15" cy="8.5" rx="2.3" ry="3" transform="rotate(-5 15 8.5)" fill="#000000"/>
    <!-- Toe 3 -->
    <ellipse cx="20.5" cy="9.5" rx="2.3" ry="3" transform="rotate(15 20.5 9.5)" fill="#000000"/>
    <!-- Toe 4 -->
    <ellipse cx="25.5" cy="13.5" rx="2" ry="2.5" transform="rotate(30 25.5 13.5)" fill="#000000"/>
  </g>
</svg>
